<svg width="40" height="40" viewBox="0 0 40 40" fill="none" xmlns="http://www.w3.org/2000/svg">
<path d="M19.5163 4C10.9606 4 4 10.9606 4 19.5163C4 28.0719 10.9606 35.0325 19.5163 35.0325C28.0719 35.0325 35.0325 28.0719 35.0325 19.5163C35.0325 10.9606 28.0719 4 19.5163 4ZM23.375 20.0625H20.8506C20.8506 24.0956 20.8506 29.0612 20.8506 29.0612H17.11C17.11 29.0612 17.11 24.1438 17.11 20.0625H15.3319V16.8825H17.11V14.8256C17.11 13.3525 17.81 11.0506 20.885 11.0506L23.6556 11.0613V14.1481C23.6556 14.1481 21.9713 14.1481 21.6437 14.1481C21.3162 14.1481 20.8513 14.3119 20.8513 15.0144V16.8831H23.7013L23.375 20.0625Z" fill="#F3F6CD"/>
</svg>
