<svg width="123" height="36" viewBox="0 0 123 36" fill="none" xmlns="http://www.w3.org/2000/svg">
<path d="M8.096 5.528C7.91467 5.32533 7.712 5.14933 7.488 5C7.264 4.84 7.024 4.712 6.768 4.616C6.512 4.50933 6.23467 4.42933 5.936 4.376C5.63733 4.32267 5.31733 4.296 4.976 4.296C3.86667 4.296 3.056 4.50933 2.544 4.936C2.04267 5.352 1.792 5.91733 1.792 6.632C1.792 7.112 1.904 7.496 2.128 7.784C2.36267 8.06133 2.72533 8.28533 3.216 8.456C3.70667 8.62667 4.34133 8.792 5.12 8.952C5.94133 9.12267 6.65067 9.32533 7.248 9.56C7.84533 9.784 8.304 10.0933 8.624 10.488C8.95467 10.8827 9.12 11.416 9.12 12.088C9.12 12.5893 9.024 13.032 8.832 13.416C8.64 13.7893 8.36267 14.0987 8 14.344C7.63733 14.5893 7.20533 14.776 6.704 14.904C6.21333 15.032 5.664 15.096 5.056 15.096C4.46933 15.096 3.90933 15.032 3.376 14.904C2.84267 14.776 2.34133 14.5893 1.872 14.344C1.40267 14.0987 0.965333 13.784 0.56 13.4L0.992 12.744C1.22667 13 1.488 13.2293 1.776 13.432C2.07467 13.624 2.39467 13.7893 2.736 13.928C3.088 14.0667 3.46133 14.1787 3.856 14.264C4.25067 14.3387 4.66133 14.376 5.088 14.376C6.08 14.376 6.85333 14.1947 7.408 13.832C7.97333 13.4587 8.256 12.9093 8.256 12.184C8.256 11.6827 8.128 11.2773 7.872 10.968C7.616 10.6587 7.22133 10.408 6.688 10.216C6.15467 10.0133 5.488 9.82667 4.688 9.656C3.888 9.48533 3.20533 9.29333 2.64 9.08C2.08533 8.86667 1.664 8.57867 1.376 8.216C1.09867 7.85333 0.96 7.36267 0.96 6.744C0.96 6.06133 1.12533 5.48533 1.456 5.016C1.79733 4.536 2.272 4.17333 2.88 3.928C3.488 3.68267 4.18667 3.56 4.976 3.56C5.46667 3.56 5.92 3.608 6.336 3.704C6.76267 3.8 7.152 3.94933 7.504 4.152C7.86667 4.344 8.20267 4.58933 8.512 4.888L8.096 5.528ZM14.5404 3.64H15.2444L20.0444 15H19.1804L17.5964 11.256H12.1724L10.5884 15H9.70838L14.5404 3.64ZM17.3724 10.584L14.8924 4.632L12.3644 10.584H17.3724ZM21.7693 15V3.64H29.1613V4.376H22.5853V8.888H28.1693V9.592H22.5853V15H21.7693ZM33.7435 3.64H34.4475L39.2475 15H38.3835L36.7995 11.256H31.3755L29.7915 15H28.9115L33.7435 3.64ZM36.5755 10.584L34.0955 4.632L31.5675 10.584H36.5755ZM40.9724 15V3.64H45.6924C46.183 3.64 46.6257 3.74133 47.0204 3.944C47.4257 4.14667 47.7724 4.41867 48.0604 4.76C48.359 5.09067 48.5884 5.464 48.7484 5.88C48.919 6.296 49.0044 6.72267 49.0044 7.16C49.0044 7.72533 48.8924 8.25333 48.6684 8.744C48.4444 9.23467 48.1297 9.64533 47.7244 9.976C47.3297 10.3067 46.8657 10.5093 46.3324 10.584L49.1644 15H48.2204L45.4684 10.712H41.7884V15H40.9724ZM41.7884 9.96H45.7724C46.263 9.96 46.6897 9.82667 47.0524 9.56C47.415 9.29333 47.6924 8.94667 47.8844 8.52C48.087 8.09333 48.1884 7.64 48.1884 7.16C48.1884 6.66933 48.071 6.216 47.8364 5.8C47.6124 5.37333 47.3084 5.032 46.9244 4.776C46.551 4.50933 46.1297 4.376 45.6604 4.376H41.7884V9.96ZM51.363 15V3.64H52.179V15H51.363Z" fill="#F3F6CD"/>
<path d="M68.968 12.072C68.968 12.6373 68.824 13.144 68.536 13.592C68.248 14.0293 67.8587 14.376 67.368 14.632C66.888 14.8773 66.36 15 65.784 15H60.424V3.64H65.896C66.4293 3.64 66.888 3.784 67.272 4.072C67.6667 4.34933 67.9653 4.712 68.168 5.16C68.3813 5.59733 68.488 6.056 68.488 6.536C68.488 7.10133 68.344 7.624 68.056 8.104C67.768 8.584 67.368 8.94133 66.856 9.176C67.5067 9.368 68.0187 9.72533 68.392 10.248C68.776 10.7707 68.968 11.3787 68.968 12.072ZM67.848 11.88C67.848 11.496 67.7627 11.144 67.592 10.824C67.4213 10.4933 67.1867 10.2267 66.888 10.024C66.6 9.82133 66.2693 9.72 65.896 9.72H61.544V14.024H65.784C66.168 14.024 66.5147 13.9227 66.824 13.72C67.1333 13.5173 67.3787 13.256 67.56 12.936C67.752 12.6053 67.848 12.2533 67.848 11.88ZM61.544 4.616V8.808H65.448C65.8213 8.808 66.152 8.712 66.44 8.52C66.728 8.31733 66.9573 8.056 67.128 7.736C67.2987 7.416 67.384 7.07467 67.384 6.712C67.384 6.328 67.304 5.98133 67.144 5.672C66.984 5.352 66.7653 5.096 66.488 4.904C66.2107 4.712 65.896 4.616 65.544 4.616H61.544ZM74.0563 15.08C73.2562 15.08 72.5309 14.92 71.8802 14.6C71.2296 14.28 70.6696 13.848 70.2002 13.304C69.7309 12.7493 69.3682 12.1307 69.1122 11.448C68.8562 10.7547 68.7282 10.0453 68.7282 9.32C68.7282 8.56267 68.8616 7.84267 69.1282 7.16C69.3949 6.46667 69.7682 5.85333 70.2482 5.32C70.7389 4.776 71.3096 4.34933 71.9602 4.04C72.6109 3.72 73.3149 3.56 74.0722 3.56C74.8723 3.56 75.5976 3.72533 76.2483 4.056C76.8989 4.38667 77.4536 4.82933 77.9123 5.384C78.3816 5.93867 78.7442 6.55733 79.0002 7.24C79.2562 7.92267 79.3842 8.62133 79.3842 9.336C79.3842 10.0933 79.2509 10.8187 78.9843 11.512C78.7176 12.1947 78.3443 12.808 77.8643 13.352C77.3843 13.8853 76.8189 14.3067 76.1683 14.616C75.5176 14.9253 74.8136 15.08 74.0563 15.08ZM69.8482 9.32C69.8482 9.93867 69.9496 10.536 70.1522 11.112C70.3549 11.6773 70.6429 12.184 71.0162 12.632C71.3896 13.0693 71.8322 13.4213 72.3442 13.688C72.8669 13.944 73.4376 14.072 74.0563 14.072C74.7069 14.072 75.2882 13.9387 75.8003 13.672C76.3229 13.3947 76.7656 13.032 77.1283 12.584C77.5016 12.1253 77.7843 11.6133 77.9762 11.048C78.1682 10.4827 78.2642 9.90667 78.2642 9.32C78.2642 8.70133 78.1629 8.10933 77.9602 7.544C77.7576 6.97867 77.4642 6.472 77.0802 6.024C76.7069 5.576 76.2643 5.224 75.7523 4.968C75.2403 4.712 74.6749 4.584 74.0563 4.584C73.4163 4.584 72.8349 4.71733 72.3122 4.984C71.8002 5.25067 71.3576 5.61333 70.9842 6.072C70.6216 6.52 70.3389 7.02667 70.1362 7.592C69.9442 8.15733 69.8482 8.73333 69.8482 9.32ZM79.8959 15V3.64H84.6959C85.1865 3.64 85.6345 3.74133 86.0399 3.944C86.4452 4.14667 86.7972 4.424 87.0959 4.776C87.4052 5.11733 87.6399 5.50133 87.7999 5.928C87.9705 6.344 88.0559 6.77067 88.0559 7.208C88.0559 7.752 87.9492 8.264 87.7359 8.744C87.5332 9.224 87.2399 9.62933 86.8559 9.96C86.4825 10.2907 86.0399 10.5093 85.5279 10.616L88.3119 15H87.0479L84.3759 10.808H81.0159V15H79.8959ZM81.0159 9.816H84.7279C85.1759 9.816 85.5652 9.69333 85.8959 9.448C86.2265 9.20267 86.4825 8.88267 86.6639 8.488C86.8452 8.08267 86.9359 7.656 86.9359 7.208C86.9359 6.74933 86.8292 6.328 86.6159 5.944C86.4132 5.54933 86.1359 5.23467 85.7839 5C85.4425 4.75467 85.0585 4.632 84.6319 4.632H81.0159V9.816ZM96.381 14.008V15H88.749V3.64H96.237V4.632H89.869V8.728H95.421V9.672H89.869V14.008H96.381ZM93.085 2.088L92.365 1.816L93.309 0.327999H94.461L93.085 2.088ZM100.419 3.64H101.363L106.083 15H104.899L103.427 11.448H98.323L96.867 15H95.667L100.419 3.64ZM103.171 10.568L100.883 4.952L98.563 10.568H103.171ZM106.112 15V3.64H107.232V14.008H113.792V15H106.112ZM121.472 14.008V15H113.84V3.64H121.328V4.632H114.96V8.728H120.512V9.672H114.96V14.008H121.472Z" fill="#F3F6CD"/>
<path d="M1.536 32V20.64H5.248C6.44267 20.64 7.43467 20.896 8.224 21.408C9.01333 21.9093 9.60533 22.592 10 23.456C10.4053 24.3093 10.608 25.2587 10.608 26.304C10.608 27.456 10.3893 28.4587 9.952 29.312C9.51467 30.1653 8.89067 30.8267 8.08 31.296C7.28 31.7653 6.336 32 5.248 32H1.536ZM10.048 26.304C10.048 25.312 9.86133 24.4267 9.488 23.648C9.11467 22.8693 8.57067 22.2613 7.856 21.824C7.152 21.376 6.28267 21.152 5.248 21.152H2.096V31.488H5.248C6.29333 31.488 7.17333 31.264 7.888 30.816C8.60267 30.3573 9.14133 29.7333 9.504 28.944C9.86667 28.1547 10.048 27.2747 10.048 26.304ZM12.6066 28.416V23.68H13.1506V28.352C13.1506 29.4613 13.332 30.288 13.6946 30.832C14.068 31.376 14.628 31.648 15.3746 31.648C15.876 31.648 16.356 31.536 16.8146 31.312C17.284 31.088 17.6946 30.7733 18.0466 30.368C18.3986 29.952 18.6546 29.4827 18.8146 28.96V23.68H19.3586V31.168C19.3586 31.2747 19.3853 31.36 19.4386 31.424C19.492 31.488 19.5613 31.52 19.6466 31.52V32C19.572 32 19.508 32 19.4546 32C19.412 32 19.3746 31.9947 19.3426 31.984C19.204 31.952 19.0866 31.8773 18.9906 31.76C18.9053 31.632 18.8626 31.488 18.8626 31.328L18.8466 29.952C18.484 30.6347 17.9826 31.1733 17.3426 31.568C16.7026 31.9627 16.0093 32.16 15.2626 32.16C14.388 32.16 13.7266 31.8453 13.2786 31.216C12.8306 30.5867 12.6066 29.6533 12.6066 28.416Z" fill="#F3F6CD"/>
<path d="M32.064 32.08C31.2107 32.08 30.4373 31.92 29.744 31.6C29.0613 31.28 28.4693 30.848 27.968 30.304C27.4773 29.7493 27.0987 29.1307 26.832 28.448C26.5653 27.7547 26.432 27.04 26.432 26.304C26.432 25.5467 26.5707 24.8267 26.848 24.144C27.136 23.4507 27.5307 22.8373 28.032 22.304C28.544 21.7707 29.1467 21.3493 29.84 21.04C30.5333 20.72 31.2907 20.56 32.112 20.56C32.9547 20.56 33.7173 20.7253 34.4 21.056C35.0933 21.3867 35.6853 21.8293 36.176 22.384C36.6773 22.9387 37.0613 23.5627 37.328 24.256C37.5947 24.9387 37.728 25.6373 37.728 26.352C37.728 27.1093 37.5893 27.8293 37.312 28.512C37.0347 29.1947 36.64 29.808 36.128 30.352C35.616 30.8853 35.0133 31.3067 34.32 31.616C33.6373 31.9253 32.8853 32.08 32.064 32.08ZM32.08 29.744C32.5813 29.744 33.0187 29.648 33.392 29.456C33.7653 29.2533 34.0747 28.992 34.32 28.672C34.5653 28.3413 34.7467 27.9733 34.864 27.568C34.992 27.152 35.056 26.7307 35.056 26.304C35.056 25.8667 34.992 25.4453 34.864 25.04C34.736 24.624 34.544 24.256 34.288 23.936C34.032 23.616 33.7173 23.3653 33.344 23.184C32.9707 22.992 32.5493 22.896 32.08 22.896C31.5787 22.896 31.1413 22.9973 30.768 23.2C30.4053 23.392 30.096 23.6533 29.84 23.984C29.5947 24.304 29.408 24.672 29.28 25.088C29.1627 25.4933 29.104 25.9093 29.104 26.336C29.104 26.7733 29.168 27.1947 29.296 27.6C29.424 28.0053 29.6107 28.3733 29.856 28.704C30.112 29.024 30.4267 29.28 30.8 29.472C31.1733 29.6533 31.6 29.744 32.08 29.744ZM31.376 27.52H33.84L37.888 32H35.424L31.376 27.52ZM50.1886 32.096C49.282 32.096 48.5086 31.9467 47.8686 31.648C47.2286 31.3387 46.706 30.9227 46.3006 30.4C45.906 29.8667 45.6126 29.264 45.4206 28.592C45.2393 27.9093 45.1486 27.1947 45.1486 26.448V20.64H47.7726V26.448C47.7726 26.8747 47.8153 27.2907 47.9006 27.696C47.986 28.0907 48.1246 28.4427 48.3166 28.752C48.5086 29.0613 48.754 29.3067 49.0526 29.488C49.362 29.6693 49.7406 29.76 50.1886 29.76C50.6473 29.76 51.0313 29.6693 51.3406 29.488C51.65 29.296 51.8953 29.0453 52.0766 28.736C52.258 28.416 52.3913 28.0587 52.4766 27.664C52.562 27.2693 52.6046 26.864 52.6046 26.448V20.64H55.2286V26.448C55.2286 27.2373 55.1273 27.9733 54.9246 28.656C54.7326 29.3387 54.434 29.9413 54.0286 30.464C53.6233 30.976 53.1006 31.376 52.4606 31.664C51.8313 31.952 51.074 32.096 50.1886 32.096ZM71.3258 29.696V32H63.3417V20.64H71.1818V22.944H65.9657V25.152H70.4458V27.28H65.9657V29.696H71.3258ZM68.2218 19.888L66.5898 19.44L67.4218 17.36H69.7418L68.2218 19.888ZM88.3919 29.088C88.3919 29.7387 88.2159 30.2827 87.8639 30.72C87.5225 31.1467 87.0585 31.4667 86.4719 31.68C85.8852 31.8933 85.2399 32 84.5359 32H78.9999V20.64H85.3199C85.8532 20.64 86.3119 20.784 86.6959 21.072C87.0905 21.3493 87.3892 21.712 87.5919 22.16C87.8052 22.608 87.9119 23.072 87.9119 23.552C87.9119 24.0853 87.7732 24.5973 87.4959 25.088C87.2185 25.568 86.8132 25.9307 86.2799 26.176C86.9305 26.368 87.4425 26.7093 87.8159 27.2C88.1999 27.6907 88.3919 28.32 88.3919 29.088ZM85.7199 28.56C85.7199 28.3147 85.6719 28.1013 85.5759 27.92C85.4799 27.728 85.3519 27.5787 85.1919 27.472C85.0425 27.3547 84.8612 27.296 84.6479 27.296H81.6239V29.776H84.5359C84.7599 29.776 84.9572 29.7227 85.1279 29.616C85.3092 29.5093 85.4532 29.3653 85.5599 29.184C85.6665 29.0027 85.7199 28.7947 85.7199 28.56ZM81.6239 22.88V25.232H84.1999C84.3919 25.232 84.5679 25.1893 84.7279 25.104C84.8985 25.0187 85.0372 24.8907 85.1439 24.72C85.2505 24.5387 85.3039 24.3147 85.3039 24.048C85.3039 23.792 85.2559 23.5787 85.1599 23.408C85.0745 23.2373 84.9572 23.1093 84.8079 23.024C84.6585 22.928 84.4879 22.88 84.2959 22.88H81.6239ZM104.001 29.696V32H96.0174V20.64H103.857V22.944H98.6414V25.152H103.121V27.28H98.6414V29.696H104.001ZM110.832 26.224C110.832 25.5307 110.96 24.8533 111.216 24.192C111.472 23.52 111.845 22.912 112.336 22.368C112.827 21.824 113.424 21.392 114.128 21.072C114.832 20.7413 115.632 20.576 116.528 20.576C117.595 20.576 118.517 20.8053 119.296 21.264C120.085 21.7227 120.672 22.32 121.056 23.056L119.04 24.464C118.869 24.0587 118.64 23.744 118.352 23.52C118.075 23.296 117.765 23.1413 117.424 23.056C117.093 22.96 116.773 22.912 116.464 22.912C115.963 22.912 115.525 23.0133 115.152 23.216C114.779 23.408 114.469 23.6693 114.224 24C113.979 24.3307 113.797 24.6987 113.68 25.104C113.563 25.5093 113.504 25.9147 113.504 26.32C113.504 26.768 113.573 27.2 113.712 27.616C113.851 28.032 114.048 28.4 114.304 28.72C114.571 29.04 114.891 29.296 115.264 29.488C115.637 29.6693 116.048 29.76 116.496 29.76C116.816 29.76 117.141 29.7067 117.472 29.6C117.803 29.4933 118.107 29.328 118.384 29.104C118.672 28.8693 118.891 28.5653 119.04 28.192L121.184 29.456C120.96 30.0107 120.592 30.4853 120.08 30.88C119.568 31.2747 118.987 31.5787 118.336 31.792C117.696 31.9947 117.061 32.096 116.432 32.096C115.611 32.096 114.853 31.9307 114.16 31.6C113.477 31.2587 112.885 30.8107 112.384 30.256C111.893 29.6907 111.509 29.0613 111.232 28.368C110.965 27.664 110.832 26.9493 110.832 26.224Z" fill="#F3F6CD"/>
</svg>
