<svg width="32" height="32" viewBox="0 0 32 32" fill="none" xmlns="http://www.w3.org/2000/svg">
<path d="M31.3314 8.29786C30.9635 6.92099 29.8792 5.8368 28.5024 5.4688C26.0066 4.80005 16 4.80005 16 4.80005C16 4.80005 5.99331 4.80005 3.49756 5.4688C2.12094 5.8368 1.0365 6.92099 0.668562 8.29786C0 10.7934 0 16.0002 0 16.0002C0 16.0002 0 21.207 0.668562 23.7022C1.0365 25.0791 2.12094 26.1636 3.49756 26.5315C5.99331 27.2 16 27.2001 16 27.2001C16 27.2001 26.0066 27.2 28.5024 26.5315C29.8792 26.1636 30.9635 25.0791 31.3314 23.7022C31.9999 21.207 31.9999 16.0002 31.9999 16.0002C31.9999 16.0002 31.9999 10.7934 31.3314 8.29786ZM12.7998 20.8003V11.2001L21.1135 16.0002L12.7998 20.8003Z" fill="#F3F6CD"/>
</svg>
